HIERARCHY
ROOT Hips
{
	OFFSET -3.958830 18.904000 13.208200
	CHANNELS 6 Xposition Yposition Zposition Zrotation Yrotation Xrotation 
	JOINT LHipJoint
	{
		OFFSET 0.000000 0.000000 0.000000
		CHANNELS 3 Zrotation Yrotation Xrotation
		JOINT LeftUpLeg
		{
			OFFSET 1.800000 -1.400000 0.085000
			CHANNELS 3 Zrotation Yrotation Xrotation
			JOINT LeftLeg
			{
				OFFSET 2.215000 -6.000000 0.000000
				CHANNELS 3 Zrotation Yrotation Xrotation
				JOINT LeftFoot
				{
					OFFSET 2.500000 -6.900000 0.000000
					CHANNELS 3 Zrotation Yrotation Xrotation
					JOINT LeftToeBase
					{
						OFFSET 0.200000 -0.500000 1.950000
						CHANNELS 3 Zrotation Yrotation Xrotation
						End Site
						{
							OFFSET 0.000000 0.000000 0.000000
						}
					}
				}
			}
		}
	}
	JOINT RHipJoint
	{
		OFFSET 0.000000 0.000000 0.000000
		CHANNELS 3 Zrotation Yrotation Xrotation
		JOINT RightUpLeg
		{
			OFFSET -1.800000 -1.400000 0.085000
			CHANNELS 3 Zrotation Yrotation Xrotation
			JOINT RightLeg
			{
				OFFSET -2.215000 -6.000000 0.000000
				CHANNELS 3 Zrotation Yrotation Xrotation
				JOINT RightFoot
				{
					OFFSET -2.500000 -6.900000 0.000000
					CHANNELS 3 Zrotation Yrotation Xrotation
					JOINT RightToeBase
					{
						OFFSET -0.200000 -0.500000 1.950000
						CHANNELS 3 Zrotation Yrotation Xrotation
						End Site
						{
							OFFSET 0.000000 0.000000 0.000000
						}
					}
				}
			}
		}
	}
	JOINT LowerBack
	{
		OFFSET 0.000000 0.000000 0.000000
		CHANNELS 3 Zrotation Yrotation Xrotation
		JOINT Spine
		{
			OFFSET -0.087000 1.940000 -0.288900
			CHANNELS 3 Zrotation Yrotation Xrotation
			JOINT Spine1
			{
				OFFSET 0.000000 1.950000 0.060000
				CHANNELS 3 Zrotation Yrotation Xrotation
				JOINT Neck
				{
					OFFSET 0.000000 0.000000 0.000000
					CHANNELS 3 Zrotation Yrotation Xrotation
					JOINT Neck1
					{
						OFFSET 0.000000 1.600000 0.340000
						CHANNELS 3 Zrotation Yrotation Xrotation
						JOINT Head
						{
							OFFSET 0.000000 1.667000 -0.240000
							CHANNELS 3 Zrotation Yrotation Xrotation
							End Site
							{
								OFFSET 0.000000 0.000000 0.000000
							}
						}
					}
				}
				JOINT LeftShoulder
				{
					OFFSET 0.000000 0.000000 0.000000
					CHANNELS 3 Zrotation Yrotation Xrotation
					JOINT LeftArm
					{
						OFFSET 2.700000 1.550000 -0.730000
						CHANNELS 3 Zrotation Yrotation Xrotation
						JOINT LeftForeArm
						{
							OFFSET 5.450000 0.000000 0.000000
							CHANNELS 3 Zrotation Yrotation Xrotation
							JOINT LeftHand
							{
								OFFSET 3.450000 0.000000 0.000000
								CHANNELS 3 Zrotation Yrotation Xrotation
								JOINT LeftHandIndex1
								{
									OFFSET 0.750000 0.000000 0.000000
									CHANNELS 3 Zrotation Yrotation Xrotation
									End Site
									{
										OFFSET 0.000000 0.000000 0.000000
									}
								}
							}
						}
					}
				}
				JOINT RightShoulder
				{
					OFFSET 0.000000 0.000000 0.000000
					CHANNELS 3 Zrotation Yrotation Xrotation
					JOINT RightArm
					{
						OFFSET -2.700000 1.550000 -0.730000
						CHANNELS 3 Zrotation Yrotation Xrotation
						JOINT RightForeArm
						{
							OFFSET -5.450000 0.000000 0.000000
							CHANNELS 3 Zrotation Yrotation Xrotation
							JOINT RightHand
							{
								OFFSET -3.450000 0.000000 0.000000
								CHANNELS 3 Zrotation Yrotation Xrotation
								JOINT RightHandIndex1
								{
									OFFSET -0.750000 0.000000 0.000000
									CHANNELS 3 Zrotation Yrotation Xrotation
									End Site
									{
										OFFSET 0.000000 0.000000 0.000000
									}
								}
							}
						}
					}
				}
			}
		}
	}
}
MOTION
Frames: 7
Frame Time: 0.016667
-1.498040 14.129210 -5.692990 -81.246911 32.103275 -76.563448 -16.094345 12.890262 4.867301 -4.066771 -11.912349 -35.374673 1.777254 10.247248 56.630680 0.459086 10.082155 1.218452 -0.054340 -0.302410 -0.279660 17.627320 -8.051369 3.583034 -18.505176 8.736627 -31.192450 13.910140 -20.090295 63.279839 -1.777386 -11.257791 0.752817 -0.096140 0.796620 0.039670 -1.137285 -7.347605 -8.724682 -0.311411 4.240060 55.998557 8.840755 2.294821 22.973989 4.210404 2.544488 -15.841228 1.612751 -2.207279 42.649520 17.358270 -8.098280 -12.272400 -4.917509 -30.117318 13.186004 -23.201209 -9.661640 3.068389 2.361781 2.718675 -0.936673 -4.008714 2.355694 0.698790 0.157490 -0.182310 0.241820 -4.435268 33.253509 9.639728 -15.806028 2.612629 -21.031167 -122.556010 4.669932 -26.208668 2.200086 -1.885063 -0.520450 0.754580 0.412910 -0.029430 
-1.509840 14.085270 -5.678340 -78.851849 30.175727 -74.230680 -16.011947 12.294849 4.628030 -4.299628 -11.328019 -37.632145 1.788175 9.747208 53.073373 0.226031 9.448758 1.403837 -0.209240 -0.488690 -0.410930 17.810136 -7.468748 4.401890 -22.553496 10.103505 -34.792731 27.181013 -25.869150 57.345700 -1.950375 -11.946134 0.584608 -0.183040 0.922030 0.072800 -1.570278 -6.419378 -9.126600 1.814870 3.374851 55.160009 6.890722 2.817738 21.109536 3.994150 2.133490 -16.111141 1.137805 -1.101212 43.339192 17.755820 -8.072880 -8.900470 -5.774625 -29.959766 13.423189 -24.055187 -8.381001 3.057029 2.444964 2.738252 -0.967222 -4.141478 2.316611 0.692260 0.252730 -0.261080 0.194870 -2.822267 33.281223 9.390628 -15.790018 4.150895 -20.640676 -119.955012 6.201691 -25.709756 2.176627 -1.726954 -0.575120 0.763520 0.550330 -0.025040 
-1.482660 14.028420 -5.650210 -74.800969 29.844311 -71.882177 -15.940981 11.964514 4.415880 -6.452475 -10.761575 -37.533143 1.404095 9.051026 47.481472 0.003511 8.344575 1.768239 -0.274050 -0.594070 -0.451250 17.931608 -7.253678 4.866962 -26.483694 10.426369 -36.661592 36.721308 -27.183645 50.360887 -1.900552 -11.707348 0.628353 -0.232910 0.970890 0.092480 -1.878069 -5.678165 -9.270811 1.528811 4.090290 54.102407 4.878928 3.769131 20.657634 3.756596 1.524733 -16.139446 0.139208 -0.932724 42.900720 19.082130 -9.172210 -6.871730 -6.012703 -29.230094 13.245839 -24.593913 -7.454482 2.765256 2.808949 2.231639 -1.000471 -4.191766 2.358884 0.662630 0.279980 -0.312520 0.164960 -2.034912 33.362316 9.638981 -15.037379 4.414418 -20.461591 -119.370506 6.588372 -25.836875 2.228070 -1.708178 -0.583620 0.732760 0.603800 -0.016770 
-1.434510 13.947040 -5.596810 -70.464776 29.292139 -69.779982 -15.953771 11.917036 4.259545 -10.264159 -10.067678 -36.527382 3.889517 6.856613 40.584139 -0.311173 6.745986 2.363538 -0.344320 -0.659590 -0.525430 17.946636 -7.107763 5.133314 -29.157049 10.696191 -37.631364 42.435108 -25.737814 44.245625 -1.740652 -11.146468 0.816898 -0.243610 1.062840 0.048440 -1.883566 -5.526335 -9.273042 0.016984 5.878260 52.621051 4.510972 5.185678 20.628734 3.874569 1.112259 -15.912017 -0.501324 -0.776677 42.441629 18.585770 -9.626080 -4.705280 -6.664612 -28.113655 12.811509 -26.004643 -6.912528 2.451395 3.993607 1.774523 -0.992307 -4.240242 2.333263 0.624210 0.331850 -0.384010 0.179330 -1.649287 33.394916 9.909388 -15.422866 3.344507 -20.275142 -117.847965 7.393675 -25.812891 2.249607 -1.664455 -0.642080 0.797490 0.642090 0.001780 
-1.376480 13.860400 -5.536090 -66.384094 27.765923 -68.309420 -15.927520 12.123842 4.008342 -11.366791 -8.561285 -34.464864 2.456800 5.872787 31.106903 -0.595560 5.012771 3.002512 -0.319570 -0.592700 -0.565940 17.924257 -7.248740 5.146166 -28.170421 11.469020 -36.691139 44.502198 -21.453313 37.284076 -1.451414 -10.051539 1.148699 -0.196350 1.101590 0.029850 -1.921683 -5.297111 -9.093675 -0.293445 6.831636 50.965176 3.942797 6.449793 21.947803 4.340438 0.123856 -15.162208 -1.974774 -0.401339 40.952152 17.891750 -9.709510 -3.877210 -6.798570 -26.150927 11.914571 -27.793381 -7.296878 2.167774 5.292551 1.338443 -0.987767 -4.259821 2.407238 0.535140 0.365450 -0.431450 0.216970 -2.548156 32.983457 9.919322 -15.795828 2.948674 -20.083085 -116.877551 7.333104 -25.622725 2.284135 -1.719023 -0.621880 0.805480 0.619450 0.045300 
-1.300480 13.773020 -5.497850 -64.068791 27.404504 -68.257823 -15.828952 12.353543 3.801478 -10.969584 -7.256443 -30.837605 -1.297984 5.478244 22.363799 -0.780919 3.894506 3.461858 -0.312680 -0.599400 -0.516710 17.916233 -7.657962 4.968922 -26.164301 11.301158 -33.461344 43.651581 -15.840364 28.784466 -1.105766 -8.463550 1.612989 -0.204310 1.087860 0.007750 -2.126983 -4.734807 -8.936604 0.905402 6.473638 50.662078 1.885268 7.237864 22.317703 4.753760 0.303651 -15.326645 -1.862868 -1.030158 41.960708 17.715660 -10.073510 -3.920420 -7.483965 -25.972365 11.828690 -27.255265 -6.804637 1.767781 5.406192 0.504277 -1.064403 -4.216246 2.350943 0.572520 0.336540 -0.396520 0.231480 -2.730720 32.645836 10.273639 -14.673297 1.651333 -20.139246 -116.648051 7.299644 -25.946124 2.346258 -1.705385 -0.644560 0.847910 0.589970 0.034080 
-1.235360 13.675870 -5.464010 -61.463814 27.882762 -68.135908 -15.808691 12.436150 3.734024 -11.489396 -6.637527 -27.959637 -3.132008 4.942209 16.459328 -0.890530 3.322082 3.665462 -0.292130 -0.573370 -0.504830 17.884410 -7.814378 4.834564 -25.937620 10.816503 -30.061657 43.092234 -12.101780 22.180539 -0.904840 -7.514745 1.891861 -0.192450 1.040700 0.004480 -2.135173 -4.561448 -8.865163 0.783322 7.306542 50.445819 0.854339 8.564672 22.858198 5.017187 0.097511 -15.408401 -2.742629 -1.520690 42.775640 17.831780 -10.590790 -5.105720 -7.485101 -25.516184 11.250358 -27.038933 -7.971666 1.763199 5.591151 -0.030548 -1.144761 -4.188363 2.340493 0.609890 0.306370 -0.369640 0.218210 -3.434349 32.485099 10.954931 -13.198169 -1.373703 -20.622410 -116.690370 6.452134 -25.765016 2.393819 -1.772942 -0.639230 0.835430 0.589210 0.017280 
